<mxfile host="app.diagrams.net" agent="Mozilla/5.0 (Macintosh; Intel Mac OS X 10_15_7) AppleWebKit/605.1.15 (KHTML, like Gecko) Version/18.4 Safari/605.1.15" version="28.0.6">
  <diagram name="Page-1" id="oZ1geRFKG7m1LXuu7Fqy">
    <mxGraphModel dx="946" dy="655" grid="1" gridSize="10" guides="1" tooltips="1" connect="1" arrows="1" fold="1" page="1" pageScale="1" pageWidth="827" pageHeight="1169" math="0" shadow="0">
      <root>
        <mxCell id="0" />
        <mxCell id="1" parent="0" />
        <mxCell id="7Ujff715UY7rj81AshfH-3" value="" style="edgeStyle=orthogonalEdgeStyle;rounded=0;orthogonalLoop=1;jettySize=auto;html=1;" edge="1" parent="1" source="7Ujff715UY7rj81AshfH-1" target="7Ujff715UY7rj81AshfH-2">
          <mxGeometry relative="1" as="geometry" />
        </mxCell>
        <mxCell id="7Ujff715UY7rj81AshfH-1" value="Protein dataset (cloud)" style="rounded=0;whiteSpace=wrap;html=1;" vertex="1" parent="1">
          <mxGeometry x="80" y="120" width="120" height="60" as="geometry" />
        </mxCell>
        <mxCell id="7Ujff715UY7rj81AshfH-5" value="" style="edgeStyle=orthogonalEdgeStyle;rounded=0;orthogonalLoop=1;jettySize=auto;html=1;" edge="1" parent="1" source="7Ujff715UY7rj81AshfH-2" target="7Ujff715UY7rj81AshfH-4">
          <mxGeometry relative="1" as="geometry" />
        </mxCell>
        <mxCell id="7Ujff715UY7rj81AshfH-7" value="" style="edgeStyle=orthogonalEdgeStyle;rounded=0;orthogonalLoop=1;jettySize=auto;html=1;" edge="1" parent="1" source="7Ujff715UY7rj81AshfH-2" target="7Ujff715UY7rj81AshfH-6">
          <mxGeometry relative="1" as="geometry" />
        </mxCell>
        <mxCell id="7Ujff715UY7rj81AshfH-2" value="Training&amp;nbsp;&lt;div&gt;(single GPU)&lt;/div&gt;" style="whiteSpace=wrap;html=1;rounded=0;" vertex="1" parent="1">
          <mxGeometry x="239" y="120" width="120" height="60" as="geometry" />
        </mxCell>
        <mxCell id="7Ujff715UY7rj81AshfH-4" value="Monitoring&lt;div&gt;(logs)&lt;/div&gt;" style="whiteSpace=wrap;html=1;rounded=0;" vertex="1" parent="1">
          <mxGeometry x="400" y="120" width="120" height="60" as="geometry" />
        </mxCell>
        <mxCell id="7Ujff715UY7rj81AshfH-6" value="Checkpoints" style="whiteSpace=wrap;html=1;rounded=0;" vertex="1" parent="1">
          <mxGeometry x="239" y="220" width="120" height="60" as="geometry" />
        </mxCell>
      </root>
    </mxGraphModel>
  </diagram>
</mxfile>
